# xmcd
#
# Track frame offsets: 
#        150
#        18677
#        39452
#        55324
#        73644
#        88887
#        99982
#        111642
#        127665
#        143077
#        159309
#        189806
#        213353
#        233938
#        250478
#        271028
#        285191
#        309581
#        328934
#
# Disc length: 4781 seconds
#
# Revision: 0
# Processed by: cddbd v1.5.2PL0 Copyright (c) Steve Scherf et al.
# Submitted via: ExactAudioCopy v1.1
#
DISCID=0c12ab13
DTITLE=Lightning Hopkins - Akella Presents - Greatest Bluesmen - vol. 
DTITLE=20  CD1
DYEAR=2017
DGENRE=Blues
TTITLE0=Buddy Brown's Blues (98 Degree Blues
TTITLE1=Last Night I Lost The Best Friend I Ever Had
TTITLE2=Too Many Drivers
TTITLE3=Hard To Love A Woman
TTITLE4=Mojo Hand
TTITLE5=Beans, Beans, Beans
TTITLE6=I Don't Want To Do Nothing To You
TTITLE7=Little Sister's Boogie
TTITLE8=The Walkin' Blues
TTITLE9=Angel Child
TTITLE10=I Asked The Bossman
TTITLE11=Smokes Like Lightning
TTITLE12=It's Crazy
TTITLE13=My Babe
TTITLE14=One Kind Favor I Ask Of You
TTITLE15=Water Fallin' Boogie
TTITLE16=That Meat's A Little Too High
TTITLE17=I Been Burning Bad Gasoline
TTITLE18=I Do My First Record And Get My Name  (Interview December 196
TTITLE18=4)
EXTD=
EXTT0=
EXTT1=
EXTT2=
EXTT3=
EXTT4=
EXTT5=
EXTT6=
EXTT7=
EXTT8=
EXTT9=
EXTT10=
EXTT11=
EXTT12=
EXTT13=
EXTT14=
EXTT15=
EXTT16=
EXTT17=
EXTT18=
PLAYORDER=
